<svg width="16" height="16" viewBox="0 0 16 16" fill="none" xmlns="http://www.w3.org/2000/svg">
<path d="M6 9.33337H2.66667C2.29848 9.33337 2 9.63185 2 10V13.3334C2 13.7016 2.29848 14 2.66667 14H6C6.36819 14 6.66667 13.7016 6.66667 13.3334V10C6.66667 9.63185 6.36819 9.33337 6 9.33337Z" stroke="#6B7083" stroke-width="1.2" stroke-linecap="round" stroke-linejoin="round"/>
<path d="M6 2H2.66667C2.29848 2 2 2.29848 2 2.66667V6C2 6.36819 2.29848 6.66667 2.66667 6.66667H6C6.36819 6.66667 6.66667 6.36819 6.66667 6V2.66667C6.66667 2.29848 6.36819 2 6 2Z" stroke="#6B7083" stroke-width="1.2" stroke-linecap="round" stroke-linejoin="round"/>
<path d="M9.3335 2.66663H14.0002" stroke="#6B7083" stroke-width="1.5" stroke-linecap="round" stroke-linejoin="round"/>
<path d="M9.3335 6H14.0002" stroke="#6B7083" stroke-width="1.5" stroke-linecap="round" stroke-linejoin="round"/>
<path d="M9.3335 10H14.0002" stroke="#6B7083" stroke-width="1.5" stroke-linecap="round" stroke-linejoin="round"/>
<path d="M9.3335 13.3334H14.0002" stroke="#6B7083" stroke-width="1.5" stroke-linecap="round" stroke-linejoin="round"/>
</svg>
