<svg width="21" height="20" viewBox="0 0 21 20" fill="none" xmlns="http://www.w3.org/2000/svg">
<path d="M16.3333 9.16699H4.66667C3.74619 9.16699 3 9.91318 3 10.8337V16.667C3 17.5875 3.74619 18.3337 4.66667 18.3337H16.3333C17.2538 18.3337 18 17.5875 18 16.667V10.8337C18 9.91318 17.2538 9.16699 16.3333 9.16699Z" stroke="#6B7083" stroke-width="1.5" stroke-linecap="round" stroke-linejoin="round"/>
<path d="M6.3335 9.16699V5.83366C6.3335 4.72859 6.77248 3.66878 7.55388 2.88738C8.33529 2.10598 9.39509 1.66699 10.5002 1.66699C11.6052 1.66699 12.665 2.10598 13.4464 2.88738C14.2278 3.66878 14.6668 4.72859 14.6668 5.83366V9.16699" stroke="#6B7083" stroke-width="1.5" stroke-linecap="round" stroke-linejoin="round"/>
</svg>
