<svg width="21" height="20" viewBox="0 0 21 20" fill="none" xmlns="http://www.w3.org/2000/svg">
<path d="M2.1665 7.50033C2.82955 7.50033 3.46543 7.76372 3.93427 8.23256C4.40311 8.7014 4.6665 9.33728 4.6665 10.0003C4.6665 10.6634 4.40311 11.2993 3.93427 11.7681C3.46543 12.2369 2.82955 12.5003 2.1665 12.5003V14.167C2.1665 14.609 2.3421 15.0329 2.65466 15.3455C2.96722 15.6581 3.39114 15.8337 3.83317 15.8337H17.1665C17.6085 15.8337 18.0325 15.6581 18.345 15.3455C18.6576 15.0329 18.8332 14.609 18.8332 14.167V12.5003C18.1701 12.5003 17.5342 12.2369 17.0654 11.7681C16.5966 11.2993 16.3332 10.6634 16.3332 10.0003C16.3332 9.33728 16.5966 8.7014 17.0654 8.23256C17.5342 7.76372 18.1701 7.50033 18.8332 7.50033V5.83366C18.8332 5.39163 18.6576 4.96771 18.345 4.65515C18.0325 4.34259 17.6085 4.16699 17.1665 4.16699H3.83317C3.39114 4.16699 2.96722 4.34259 2.65466 4.65515C2.3421 4.96771 2.1665 5.39163 2.1665 5.83366V7.50033Z" stroke="#6B7083" stroke-width="1.5" stroke-linecap="round" stroke-linejoin="round"/>
<path d="M11.3335 4.16699V5.83366" stroke="#6B7083" stroke-width="1.5" stroke-linecap="round" stroke-linejoin="round"/>
<path d="M11.3335 14.167V15.8337" stroke="#6B7083" stroke-width="1.5" stroke-linecap="round" stroke-linejoin="round"/>
<path d="M11.3335 9.16699V10.8337" stroke="#6B7083" stroke-width="1.5" stroke-linecap="round" stroke-linejoin="round"/>
</svg>
